<svg width="76" height="76" viewBox="0 0 76 76" fill="none" xmlns="http://www.w3.org/2000/svg">
<rect x="2" y="2" width="72" height="72" rx="2" fill="#0A9418" fill-opacity="0.75" stroke="#06600F" stroke-width="4"/>
<path d="M36.375 32.7816C36.375 33.6788 36.1507 34.4743 35.7022 35.1683C35.2536 35.8623 34.6357 36.4167 33.8486 36.8314C34.7458 37.2631 35.4567 37.8597 35.9815 38.6215C36.5062 39.3747 36.7686 40.2634 36.7686 41.2875C36.7686 42.9294 36.21 44.2286 35.0928 45.1849C33.9756 46.1329 32.4564 46.6068 30.5352 46.6068C28.6139 46.6068 27.0905 46.1286 25.9649 45.1722C24.8392 44.2159 24.2764 42.9209 24.2764 41.2875C24.2764 40.2634 24.5387 39.3705 25.0635 38.6088C25.5882 37.847 26.2949 37.2546 27.1836 36.8314C26.3965 36.4167 25.7787 35.8623 25.3301 35.1683C24.89 34.4743 24.6699 33.6788 24.6699 32.7816C24.6699 31.2074 25.1947 29.9548 26.2441 29.0238C27.2936 28.0844 28.7197 27.6146 30.5225 27.6146C32.3167 27.6146 33.7386 28.0801 34.7881 29.0111C35.846 29.9336 36.375 31.1905 36.375 32.7816ZM33.0869 41.0209C33.0869 40.2168 32.8542 39.5736 32.3887 39.0912C31.9232 38.6088 31.2969 38.3676 30.5098 38.3676C29.7311 38.3676 29.1091 38.6088 28.6436 39.0912C28.1781 39.5651 27.9453 40.2084 27.9453 41.0209C27.9453 41.808 28.1738 42.4427 28.6309 42.9252C29.0879 43.4076 29.7227 43.6488 30.5352 43.6488C31.3307 43.6488 31.9528 43.4161 32.4014 42.9506C32.8584 42.4851 33.0869 41.8418 33.0869 41.0209ZM32.7061 32.9594C32.7061 32.2399 32.5156 31.6644 32.1348 31.2328C31.7539 30.7927 31.2165 30.5726 30.5225 30.5726C29.8369 30.5726 29.3037 30.7842 28.9229 31.2074C28.542 31.6306 28.3516 32.2146 28.3516 32.9594C28.3516 33.6957 28.542 34.2881 28.9229 34.7367C29.3037 35.1853 29.8412 35.4095 30.5352 35.4095C31.2292 35.4095 31.7624 35.1853 32.1348 34.7367C32.5156 34.2881 32.7061 33.6957 32.7061 32.9594ZM51.3047 32.7816C51.3047 33.6788 51.0804 34.4743 50.6318 35.1683C50.1833 35.8623 49.5654 36.4167 48.7783 36.8314C49.6755 37.2631 50.3864 37.8597 50.9111 38.6215C51.4359 39.3747 51.6982 40.2634 51.6982 41.2875C51.6982 42.9294 51.1397 44.2286 50.0225 45.1849C48.9053 46.1329 47.3861 46.6068 45.4649 46.6068C43.5436 46.6068 42.0202 46.1286 40.8945 45.1722C39.7689 44.2159 39.2061 42.9209 39.2061 41.2875C39.2061 40.2634 39.4684 39.3705 39.9932 38.6088C40.5179 37.847 41.2246 37.2546 42.1133 36.8314C41.3262 36.4167 40.7083 35.8623 40.2598 35.1683C39.8197 34.4743 39.5996 33.6788 39.5996 32.7816C39.5996 31.2074 40.1244 29.9548 41.1738 29.0238C42.2233 28.0844 43.6494 27.6146 45.4522 27.6146C47.2464 27.6146 48.6683 28.0801 49.7178 29.0111C50.7757 29.9336 51.3047 31.1905 51.3047 32.7816ZM48.0166 41.0209C48.0166 40.2168 47.7839 39.5736 47.3184 39.0912C46.8529 38.6088 46.2266 38.3676 45.4395 38.3676C44.6608 38.3676 44.0387 38.6088 43.5732 39.0912C43.1078 39.5651 42.875 40.2084 42.875 41.0209C42.875 41.808 43.1035 42.4427 43.5606 42.9252C44.0176 43.4076 44.6524 43.6488 45.4649 43.6488C46.2604 43.6488 46.8825 43.4161 47.3311 42.9506C47.7881 42.4851 48.0166 41.8418 48.0166 41.0209ZM47.6357 32.9594C47.6357 32.2399 47.4453 31.6644 47.0645 31.2328C46.6836 30.7927 46.1462 30.5726 45.4522 30.5726C44.7666 30.5726 44.2334 30.7842 43.8525 31.2074C43.4717 31.6306 43.2813 32.2146 43.2813 32.9594C43.2813 33.6957 43.4717 34.2881 43.8525 34.7367C44.2334 35.1853 44.7708 35.4095 45.4649 35.4095C46.1589 35.4095 46.6921 35.1853 47.0645 34.7367C47.4453 34.2881 47.6357 33.6957 47.6357 32.9594Z" fill="white"/>
</svg>
